PathFileType	4	(X/Y/Z)	D:\TRACE\v60_Jaco2_6-2-23\JustBodyDRS_Motion2_3-platform.trc
DataRate	CameraRate	NumFrames	NumMarkers	Units	OrigDataRate	OrigDataStartFrame	OrigNumFrames
100.00	100.00	      71	5	mm	100.00	5126	      6834
Frame#	Time	Left_Front			Right_Front			Left_Aft			Right_Aft			Post			
		X1	Y1	Z1	X2	Y2	Z2	X3	Y3	Z3	X4	Y4	Z4	X5	Y5	Z5	

5126	51.250	-850.13330	-26.99926	-646.16583	720.04559	-25.74123	-651.24957	-758.08612	32.13371	487.68542	684.24017	32.13087	497.44199	-64.02348	1253.32434	-1038.78906	
5127	51.260	-850.48743	-27.87993	-646.43353	719.92151	-27.04136	-651.37213	-758.29742	32.86890	487.43521	683.81415	32.99411	496.89468	-64.08975	1251.45447	-1040.83069	
5128	51.270	-850.79913	-29.20955	-646.32031	719.69092	-27.96425	-651.50140	-758.67834	33.63913	487.02719	683.30658	33.64324	496.56290	-64.84055	1249.95056	-1042.72864	
5129	51.280	-850.95386	-30.39253	-646.75641	719.32672	-29.07743	-651.89935	-759.03149	34.41323	486.64713	683.17627	34.43019	496.32574	-65.07386	1248.13586	-1044.65527	
5130	51.290	-851.12488	-31.51568	-646.84918	719.25269	-30.19685	-652.14398	-759.00177	35.04555	486.42355	682.91992	35.22956	496.25421	-65.00570	1246.19385	-1046.74048	
5131	51.300	-851.10699	-32.77364	-647.04510	719.05914	-31.48784	-652.30231	-759.20776	35.88474	485.96423	682.86603	35.92791	496.05276	-65.45842	1244.69470	-1049.04529	
5132	51.310	-851.31140	-33.84956	-647.16205	719.15094	-32.29580	-652.54810	-759.35785	36.77636	485.68250	682.73010	36.72602	495.57935	-65.20033	1242.95618	-1051.22974	
5133	51.320	-851.21796	-34.57461	-647.30182	719.12476	-33.24968	-652.70807	-759.23938	37.19073	485.52026	682.24927	37.39970	495.52969	-65.47733	1241.47437	-1053.57031	
5134	51.330	-851.19800	-35.50314	-647.69916	718.92291	-34.30871	-653.04822	-759.42828	38.06763	485.34186	682.81610	38.13461	494.83585	-65.46442	1239.58655	-1056.10803	
5135	51.340	-851.17029	-36.92591	-647.63318	719.10358	-35.45446	-653.08044	-759.32269	38.83773	485.13043	682.97662	38.83014	494.63428	-65.23796	1238.07703	-1058.52991	
5136	51.350	-851.08514	-37.87537	-647.83130	719.01025	-36.31729	-653.31055	-759.34814	39.30995	484.90457	682.79010	39.38902	494.27698	-65.11941	1236.63342	-1060.90466	
5137	51.360	-850.70142	-39.44687	-648.16449	718.97284	-37.29221	-653.50604	-759.22058	39.69237	484.60831	682.59058	39.86824	494.11087	-65.27585	1235.02185	-1063.07690	
5138	51.370	-850.69775	-40.07875	-648.37634	718.82556	-37.98550	-653.67767	-759.29175	40.45350	484.18924	682.83429	40.69274	493.81757	-65.17860	1233.58691	-1065.30042	
5139	51.380	-850.84735	-40.04045	-648.46692	719.11810	-38.36460	-653.76147	-759.16498	41.13281	483.84735	683.30811	41.68568	493.77103	-65.05112	1231.98975	-1067.36084	
5140	51.390	-850.45288	-41.50272	-648.66553	719.62305	-39.80609	-653.98315	-758.70062	41.92273	483.62329	683.46960	42.03257	493.45139	-64.98550	1230.45996	-1069.00549	
5141	51.400	-850.38757	-42.83441	-648.78986	720.26715	-41.31608	-653.91760	-758.38977	42.39052	483.50427	684.21606	42.64897	492.97287	-64.83891	1229.13611	-1070.93823	
5142	51.410	-849.97717	-43.71991	-649.14624	720.61578	-41.96855	-653.91101	-758.17065	43.11502	483.12573	684.42560	43.71532	492.86264	-64.17137	1227.64978	-1072.62585	
5143	51.420	-849.57660	-44.39579	-649.25751	720.59271	-42.60666	-654.31476	-757.85413	43.58360	482.93564	684.77356	43.93118	492.57043	-63.56630	1226.08057	-1074.31396	
5144	51.430	-849.19977	-44.83790	-649.19818	720.76978	-43.29026	-654.61603	-757.45923	44.11889	482.62430	684.88104	44.44325	492.29474	-63.35024	1224.81335	-1076.01538	
5145	51.440	-848.67023	-45.48235	-649.19043	721.33020	-44.03293	-654.47382	-757.14160	44.50267	482.49402	685.07263	44.85268	491.96375	-63.46000	1223.62988	-1077.78479	
5146	51.450	-848.18915	-46.53024	-649.14124	721.56586	-44.58530	-654.68481	-756.53345	45.08095	482.29565	685.54297	45.36608	491.91074	-63.08944	1222.69788	-1079.21460	
5147	51.460	-848.21460	-47.32911	-649.68097	721.87891	-44.96334	-654.77484	-756.42346	45.44351	482.07327	686.09558	45.93359	491.76791	-62.39374	1221.44775	-1080.74585	
5148	51.470	-847.90344	-47.73369	-649.71313	722.46863	-46.01540	-654.90979	-756.07574	45.75639	481.92459	686.96533	46.78233	491.43207	-61.77473	1220.53442	-1082.28101	
5149	51.480	-847.32324	-48.07175	-649.91919	723.04736	-46.63081	-654.92310	-755.47382	46.11843	481.79138	686.43719	46.19259	491.13263	-61.63754	1219.70313	-1082.99329	
5150	51.490	-846.69202	-48.59612	-649.91498	723.46515	-47.02379	-655.09937	-754.90149	46.54918	481.49866	686.61713	46.33464	490.76978	-61.07640	1218.84009	-1084.40613	
5151	51.500	-846.07440	-49.24667	-649.70313	724.03632	-47.41915	-655.18762	-754.45679	46.68320	481.41919	687.03674	46.73333	490.63892	-60.29912	1218.00232	-1085.52393	
5152	51.510	-845.64941	-49.93337	-649.70636	724.37842	-47.77947	-655.30627	-753.66382	47.18643	481.36002	687.53802	47.08524	490.51529	-60.16509	1217.11401	-1086.67761	
5153	51.520	-845.29144	-50.38889	-649.86755	724.93414	-48.25079	-655.22089	-753.45691	47.33419	481.10089	687.80109	47.23138	490.33920	-59.44173	1216.37720	-1087.82336	
5154	51.530	-844.75610	-50.79374	-650.30750	725.40173	-48.77528	-655.15918	-753.03094	47.39201	481.01672	689.47559	48.41626	489.99753	-59.24662	1215.61560	-1088.50073	
5155	51.540	-844.30981	-51.06918	-650.38361	725.76550	-49.21025	-655.32172	-752.21710	47.61736	480.93695	689.89618	48.66323	489.88382	-58.78928	1214.87732	-1089.10742	
5156	51.550	-843.68054	-51.43062	-650.27203	726.52307	-49.74282	-655.38574	-751.69806	48.07624	480.90323	690.28198	48.87301	489.82700	-57.57147	1214.23877	-1089.75623	
5157	51.560	-842.85455	-51.88991	-650.30585	727.24750	-50.04799	-655.48212	-751.07947	48.36933	480.70288	691.26135	49.25468	489.70306	-57.52525	1213.89905	-1090.45996	
5158	51.570	-842.29919	-52.23043	-650.40088	727.94989	-50.15238	-655.38721	-750.61877	48.62163	480.44962	692.81366	50.26540	490.06592	-56.88687	1213.36731	-1091.33191	
5159	51.580	-841.88208	-52.40430	-650.54218	728.33533	-50.60595	-655.44427	-750.38837	49.27139	480.02783	692.60559	49.81387	489.92279	-56.41133	1212.85840	-1091.69580	
5160	51.590	-841.23285	-52.69667	-650.59131	728.84302	-51.08088	-655.50214	-749.51715	48.95783	480.16125	692.98157	49.80862	489.84412	-55.30320	1212.21704	-1092.44495	
5161	51.600	-840.67114	-53.05580	-650.68030	729.52991	-51.23088	-655.57684	-748.68866	48.93530	480.26300	693.76636	49.94592	489.90253	-54.51031	1211.86121	-1092.65247	
5162	51.610	-840.05493	-53.18008	-650.38721	730.18817	-51.12749	-655.73254	-748.16913	49.12053	480.36353	694.63708	50.25511	489.92703	-54.30463	1211.81580	-1092.66785	
5163	51.620	-839.28180	-53.26981	-650.30865	730.99292	-51.13577	-655.75482	-747.47748	49.34631	480.37823	695.33752	50.24907	489.75848	-53.64277	1211.71008	-1093.05566	
5164	51.630	-838.18219	-53.23202	-650.19128	731.73419	-51.26026	-655.78345	-746.69171	49.32454	480.29807	695.92090	50.18796	489.64661	-53.16358	1211.58875	-1093.33643	
5165	51.640	-837.82367	-53.27745	-650.50677	732.51007	-51.28454	-655.52765	-745.98071	49.27724	480.21500	696.61682	50.19261	489.68533	-51.99128	1211.58057	-1093.44727	
5166	51.650	-837.03168	-53.37217	-650.51099	733.17139	-51.29150	-655.71448	-745.27100	49.24892	480.27448	697.23712	50.16967	489.66992	-51.31842	1211.51025	-1093.29150	
5167	51.660	-836.33716	-53.35818	-650.55945	734.01544	-51.22420	-655.65582	-744.50104	49.30325	480.24234	697.92401	49.97113	489.59027	-50.49100	1211.59131	-1093.04956	
5168	51.670	-835.60632	-53.26221	-650.48755	734.55853	-51.26981	-655.72589	-743.81232	49.27298	480.19891	697.23877	48.88186	488.40384	-49.94804	1211.84521	-1093.07617	
5169	51.680	-834.42993	-52.93325	-650.38904	735.19958	-51.17167	-655.87115	-743.01038	49.17553	480.25702	699.52063	50.00726	489.27307	-49.25977	1211.90125	-1092.81335	
5170	51.690	-834.04755	-52.92242	-650.54596	736.31982	-50.70972	-655.73700	-742.13464	49.00771	480.28455	700.07825	49.94654	489.29761	-48.53215	1212.22632	-1092.47620	
5171	51.700	-833.22217	-52.85686	-650.49933	736.91687	-50.84204	-655.70557	-741.33899	48.97386	480.29425	700.91254	49.66655	489.36014	-47.57154	1212.31104	-1092.36169	
5172	51.710	-832.24622	-52.79625	-650.62622	737.74780	-50.66141	-655.67078	-740.51495	48.79995	480.35321	702.00610	49.64164	489.38345	-46.79096	1212.70679	-1091.88379	
5173	51.720	-831.42780	-52.23790	-650.50995	738.52789	-50.53364	-655.71619	-739.86652	48.61350	480.43832	702.47784	49.31948	489.36343	-45.90247	1213.12427	-1091.73743	
5174	51.730	-830.62311	-51.89985	-650.43262	739.31158	-50.24402	-655.72833	-738.99597	48.51892	480.61896	703.54523	49.20339	489.53073	-44.89898	1213.56726	-1090.96863	
5175	51.740	-829.63678	-51.29729	-650.11853	740.28699	-49.60637	-655.49072	-738.40063	48.71432	480.72217	704.38977	48.98454	489.68900	-44.17638	1214.09534	-1090.20398	
5176	51.750	-828.87549	-50.81297	-650.32123	741.07874	-48.98110	-655.54700	-737.07880	47.90966	480.51944	704.97729	48.65407	489.74362	-43.54731	1214.84912	-1089.85974	
5177	51.760	-827.96674	-50.57721	-650.31049	741.80359	-48.88705	-655.63312	-735.88464	47.21556	480.71429	706.40796	48.42350	489.83109	-42.90509	1215.66040	-1089.09082	
5178	51.770	-826.97644	-50.15294	-650.38477	742.86230	-48.75233	-655.60248	-735.18396	47.00700	480.69699	707.16193	48.18848	489.94803	-41.70503	1216.36646	-1088.12158	
5179	51.780	-826.35583	-49.86500	-650.16956	743.52405	-48.21508	-655.57941	-734.49890	46.99315	480.77856	707.79407	47.73646	490.02509	-40.77837	1216.99036	-1087.44458	
5180	51.790	-825.01855	-49.30320	-650.05139	744.72241	-47.60972	-655.41028	-733.27490	46.83844	480.86667	709.05743	47.65019	490.26166	-39.51158	1217.61194	-1086.47742	
5181	51.800	-824.12726	-48.57967	-650.09814	745.66382	-47.45390	-655.52625	-732.66107	46.88589	480.70908	709.79559	47.26221	490.27155	-38.69568	1218.15979	-1085.51025	
5182	51.810	-823.26245	-48.33816	-650.06799	746.57599	-46.93412	-655.44373	-731.37854	46.03990	481.21985	710.93280	47.00898	490.37595	-37.71525	1219.29053	-1083.96692	
5183	51.820	-822.19440	-47.82118	-649.95093	747.26501	-46.54304	-655.44800	-730.13306	45.49849	481.28159	712.05206	46.75307	490.62021	-36.70603	1220.25317	-1082.70679	
5184	51.830	-821.35370	-47.27462	-649.89459	748.69855	-45.64297	-655.09906	-729.48376	45.12943	481.49133	712.53223	46.01100	490.68027	-35.81171	1221.09851	-1081.69189	
5185	51.840	-820.20276	-46.65735	-649.89777	749.90778	-45.01489	-654.94043	-728.52295	44.78694	481.76404	713.86462	45.91435	491.09894	-35.02913	1222.08716	-1080.06873	
5186	51.850	-819.28766	-46.20252	-649.63776	750.76080	-44.36634	-654.91388	-727.28363	44.34964	482.05484	714.79407	45.28388	491.09735	-33.94885	1223.20825	-1078.65039	
5187	51.860	-818.27588	-45.17117	-649.53772	751.77563	-43.62175	-654.62488	-726.54266	44.06792	482.19040	715.64917	44.89063	491.54663	-32.49383	1224.37598	-1077.16602	
5188	51.870	-817.27753	-44.35963	-649.33655	753.12030	-42.71253	-654.51123	-725.19684	43.39212	482.43335	717.07294	44.24500	491.57211	-31.68237	1225.79492	-1075.72180	
5189	51.880	-816.10754	-43.54382	-649.47089	754.03729	-41.88454	-654.57629	-724.26904	42.83715	482.71533	717.71283	43.50396	491.78888	-30.74966	1226.91113	-1073.96509	
5190	51.890	-815.15765	-42.63305	-649.24323	754.86365	-40.85733	-654.26300	-723.40582	42.08685	483.09711	719.06488	43.02324	492.15109	-29.66081	1228.68677	-1072.20667	
5191	51.900	-814.25775	-41.75025	-648.97534	755.95276	-40.23374	-654.24860	-722.25580	41.36799	483.33746	719.79089	42.22662	492.28375	-28.55262	1230.09021	-1070.48206	
5192	51.910	-812.98724	-40.45715	-648.74554	756.93842	-38.96452	-654.13654	-721.39063	40.84782	483.59171	721.17865	41.64420	492.65479	-27.39047	1231.51306	-1068.48450	
5193	51.920	-811.77338	-39.52458	-648.67389	757.98584	-37.79085	-653.79614	-720.28912	40.23209	483.77933	722.22736	40.93789	492.89444	-26.32866	1233.54895	-1066.40076	
5194	51.930	-810.75806	-38.60286	-648.39630	759.25183	-36.82474	-653.72205	-719.00311	39.45965	484.09164	723.20441	40.19165	493.23642	-25.18913	1235.17322	-1064.60791	
5195	51.940	-809.79956	-37.35725	-648.47266	760.34241	-35.85867	-653.69995	-718.12103	38.95375	484.38199	724.45990	39.52858	493.69913	-24.29515	1237.05396	-1062.23547	
5196	51.950	-808.91644	-36.10397	-648.23126	761.30219	-34.70795	-653.22650	-716.86829	38.00322	484.82388	725.21765	38.56398	493.84747	-23.55991	1238.95435	-1059.64026	
